<svg id="MoneyBox" xmlns="http://www.w3.org/2000/svg" viewBox="0 0 1000 1000">
  <defs>
    <style>
      .cls-1 {
        fill: #fff;
      }
    </style>
  </defs>
  <title>MoneyBox</title>
  <g>
    <path class="cls-1" d="M879.07,295.6H663c19-28.1,30.07-64.89,30.07-102.86C693.09,86.32,606.84,0,500.41,0S307.69,86.22,307.66,192.64h0c0,38,11,74.86,30.07,103H241.25a16.48,16.48,0,0,0-11.36,5.11L110,420.5a16.85,16.85,0,0,0-5,11.56v552A16.47,16.47,0,0,0,121.65,1000H759.48a16,16,0,0,0,11.35-4.63L890.71,875.81a16.27,16.27,0,0,0,5-11.32v-552A17.27,17.27,0,0,0,879.07,295.6Zm-378.71-263A160.59,160.59,0,1,1,339.77,193.15h0A160.77,160.77,0,0,1,500.36,32.56ZM247.9,327.71H363.36c10.18,12,21.51,20.28,33.78,28.09H382a16.06,16.06,0,1,0,0,32.11H606.72a16.06,16.06,0,1,0,0-32.11h-3.13c12.27-7.81,23.59-16.05,33.77-28.09H840.31L752.82,416H160.41ZM137.12,448.12H743.19V967.89H137.12ZM775.3,945.32V438.71l88.3-87.48V857.84Z"/>
    <path class="cls-1" d="M426.11,213.32h30a163.75,163.75,0,0,1-.44,17.3l0,.42A50.7,50.7,0,0,1,446,257l-7.41,10.12a16.06,16.06,0,0,0,14.86,25.43l27.53-3.3a39.14,39.14,0,0,1,22.53,4A71,71,0,0,0,556.91,298l9.71-3a16.05,16.05,0,1,0-9.41-30.7l-9.71,3a39.1,39.1,0,0,1-29.38-2.58,71.13,71.13,0,0,0-35.8-7.76,82.93,82.93,0,0,0,5.33-23.42l0-.41c.52-6.58.67-13.2.54-19.82h26.18a16.06,16.06,0,0,0,0-32.11H484.93c-.67-3.6-1.4-7.2-2.27-10.78a96.16,96.16,0,0,1-3.1-22,28.47,28.47,0,0,1,2-10.48,25.91,25.91,0,0,1,5.53-8.64,25.44,25.44,0,0,1,8.76-5.87,29.36,29.36,0,0,1,11.49-2.15c19.67,0,24.34,10.26,26.22,19.2A16.06,16.06,0,0,0,565,133.87c-6-28.41-27-44.7-57.65-44.7a61.28,61.28,0,0,0-23.95,4.66A57.55,57.55,0,0,0,451.71,126a60.39,60.39,0,0,0-4.26,22.38,128.15,128.15,0,0,0,4,29.55c.26,1.07.49,2.15.72,3.23H426.11a16.06,16.06,0,1,0,0,32.11Z"/>
  </g>
</svg>
