<svg xmlns="http://www.w3.org/2000/svg" width="798.561" height="798.561" viewBox="0 0 211.286 211.286"><defs><clipPath id="a" clipPathUnits="userSpaceOnUse"><path d="M-831.42 287.806h1300v-1300h-1300Z"/></clipPath></defs><path d="M0 0c-32.263 21.035-55.548 54.691-62.812 93.925-1.569 8.477-2.43 17.201-2.43 26.127h-102.967l-.166-412.656c-1.731-46.21-39.764-83.299-86.389-83.299-14.491 0-28.136 3.623-40.149 9.945-27.55 14.498-46.405 43.376-46.405 76.608 0 47.728 38.831 86.558 86.554 86.558 8.91 0 17.455-1.47 25.539-4.002v105.118c-8.365 1.139-16.865 1.851-25.539 1.851-104.504 0-189.52-85.021-189.52-189.525 0-64.118 32.035-120.86 80.908-155.171 30.783-21.612 68.228-34.349 108.612-34.349 104.504 0 189.522 85.016 189.522 189.52v209.252c40.385-28.986 89.862-46.067 143.253-46.067v102.967C49.251-23.198 22.464-14.648 0 0" clip-path="url(#a)" style="fill:#fff" transform="matrix(.35278 0 0 -.35278 170.25 42.352)"/></svg>
