<svg xmlns="http://www.w3.org/2000/svg" viewBox="0 0 1000 1000">
  <defs>
    <style>
      .cls-1 {
        fill: #000;
      }
    </style>
  </defs>
  <title>PartyPopper</title>
  <g id="PartyPopper">
    <g>
      <path class="cls-1" d="M134.58,184.86,175,185l22.86,33.45a12.5,12.5,0,0,0,10.3,5.44,13.27,13.27,0,0,0,1.77-.12,12.52,12.52,0,0,0,10.11-8.48l12.59-38.55,38.8-11.45a12.5,12.5,0,0,0,3.84-22.07l-32.69-23.9,1.13-40.56a12.49,12.49,0,0,0-19.82-10.45L191.15,92,153,78.43A12.49,12.49,0,0,0,137,94l12.44,38.6-24.7,32.14a12.49,12.49,0,0,0,9.89,20.09Zm40.6-53.66-6.68-20.75L189,117.74a12.47,12.47,0,0,0,11.53-1.64l17.57-12.76-.6,21.79a12.5,12.5,0,0,0,5.11,10.41l17.58,12.87-20.88,6.17a12.49,12.49,0,0,0-8.33,8.09l-6.76,20.67L191.93,165.4A12.49,12.49,0,0,0,181.65,160l-21.74-.05,13.29-17.3A12.39,12.39,0,0,0,175.18,131.2Z"/>
      <path class="cls-1" d="M789.77,107.48l37.13,16.11,7.79,39.8a12.51,12.51,0,0,0,9,9.66,13,13,0,0,0,3.26.43,12.54,12.54,0,0,0,9.38-4.23l26.76-30.4,40.15,4.86a12.6,12.6,0,0,0,12-5.56,12.44,12.44,0,0,0,.3-13.17L914.91,90.05l17-36.8a12.49,12.49,0,0,0-14.06-17.44l-39.45,8.83L848.79,17.05a12.49,12.49,0,0,0-20.94,8L824,65.39,788.67,85.12a12.48,12.48,0,0,0,1.1,22.36ZM841.9,84a12.45,12.45,0,0,0,6.34-9.73l2.06-21.68,15.89,14.8a12.36,12.36,0,0,0,11.24,3l21.19-4.74-9.15,19.79A12.45,12.45,0,0,0,890,97.07l11.08,18.79-21.58-2.61a12.51,12.51,0,0,0-10.88,4.14l-14.34,16.3-4.18-21.35a12.49,12.49,0,0,0-7.28-9.06l-20-8.67Z"/>
      <path class="cls-1" d="M859.73,688.41a48.13,48.13,0,1,0,48,48.12A48.15,48.15,0,0,0,859.73,688.41Zm0,71.28a23.15,23.15,0,1,1,23.07-23.16A23.14,23.14,0,0,1,859.73,759.69Z"/>
      <path class="cls-1" d="M507.84,126.49a48.13,48.13,0,1,0-48-48.13A48.15,48.15,0,0,0,507.84,126.49Zm0-71.27a23.15,23.15,0,1,1-23.07,23.16A23.14,23.14,0,0,1,507.84,55.22Z"/>
      <path class="cls-1" d="M757.72,314.14A48.13,48.13,0,1,0,709.67,266,48.14,48.14,0,0,0,757.72,314.14Zm0-71.28A23.15,23.15,0,1,1,734.65,266,23.14,23.14,0,0,1,757.72,242.86Z"/>
      <path class="cls-1" d="M801.62,517.86a48.13,48.13,0,1,0-48-48.14A48.15,48.15,0,0,0,801.62,517.86Zm0-71.27a23.15,23.15,0,1,1-23.07,23.14A23.13,23.13,0,0,1,801.62,446.59Z"/>
      <path class="cls-1" d="M12.8,1000a12.44,12.44,0,0,0,4.87-1L722.36,701.08a12.52,12.52,0,0,0,7.34-14.17c-82.59-379.4-415-417.79-418.37-418.13a12.33,12.33,0,0,0-12.78,7.58L1.28,982.66A12.51,12.51,0,0,0,12.8,1000ZM317.85,294.86c52.79,8.33,310,65.14,385.15,387.27L36.21,964Z"/>
      <path class="cls-1" d="M585.48,350.85a12.47,12.47,0,0,0,10.07-5.11c3.94-5.38,96.27-134.16,70.88-334a12.49,12.49,0,1,0-24.78,3.15C665.74,204.41,576.31,329.75,575.4,331a12.48,12.48,0,0,0,10.08,19.85Z"/>
      <path class="cls-1" d="M650.51,406.35a12.49,12.49,0,0,0,15.57,19.53c1.4-1.11,141.86-110.29,315.7-40.91a12.49,12.49,0,0,0,9.27-23.19C803.4,286.9,656.67,401.44,650.51,406.35Z"/>
      <path class="cls-1" d="M405.09,242a12.49,12.49,0,0,0,9.38,15,12.24,12.24,0,0,0,2.81.32,12.49,12.49,0,0,0,12.16-9.68c1.2-5.19,28.29-127.65-55.37-201.71a12.49,12.49,0,1,0-16.57,18.7C429.92,128.66,405.34,240.83,405.09,242Z"/>
      <path class="cls-1" d="M997,627.13c-69.62-98.1-218.69-53.7-225-51.76a12.5,12.5,0,0,0,7.34,23.89c1.35-.43,138-41.2,197.3,42.33A12.49,12.49,0,0,0,997,627.13Z"/>
    </g>
  </g>
</svg>
