<svg width="250" height="250" xmlns="http://www.w3.org/2000/svg"><path d="M167.296 68.185c0 10.364 8.4 18.766 18.764 18.766 10.364 0 18.767-8.402 18.767-18.766 0-10.363-8.403-18.764-18.767-18.764-10.364 0-18.764 8.401-18.764 18.764m-121.669 0c0 10.364 8.403 18.766 18.767 18.766 10.364 0 18.765-8.402 18.765-18.766 0-10.363-8.401-18.764-18.765-18.764s-18.767 8.401-18.767 18.764m202.134-8.119-62.965 54.505a.674.674 0 0 1-.891-.005l-48.798-43.38c-1.014-.904-2.575.088-2.189 1.389l37.656 127.039c.171.57.697.965 1.293.965h19.205c.545 0 1.035-.328 1.245-.832L249.89 61.603c.41-.982-.38-1.876-1.253-1.876-.296 0-.602.103-.875.338M.111 61.603l57.57 138.144a1.347 1.347 0 0 0 1.246.832H78.18c.574 0 1.085-.366 1.274-.908L123.651 72.4c.442-1.273-1.05-2.335-2.109-1.502l-55.454 43.716a.674.674 0 0 1-.856-.02L2.238 60.064a1.321 1.321 0 0 0-.874-.338c-.873 0-1.662.894-1.253 1.876"/></svg>